<svg xmlns="http://www.w3.org/2000/svg" aria-labelledby="title desc" role="img" viewBox="0 0 512 512"><title id="title">AG Kit logo</title><desc id="desc">A dark rounded square mark with interlocking A and G letterforms.</desc><defs><linearGradient id="edge" x1="96" x2="416" y1="96" y2="416" gradientUnits="userSpaceOnUse"><stop offset="0" stop-color="#2dd4bf"/><stop offset=".52" stop-color="#60a5fa"/><stop offset="1" stop-color="#fb923c"/></linearGradient><linearGradient id="fill" x1="80" x2="432" y1="56" y2="456" gradientUnits="userSpaceOnUse"><stop offset="0" stop-color="#18181b"/><stop offset="1" stop-color="#09090b"/></linearGradient></defs><rect width="400" height="400" x="56" y="56" fill="url(#fill)" rx="96"/><rect width="368" height="368" x="72" y="72" fill="none" stroke="url(#edge)" stroke-width="16" rx="82"/><path fill="none" stroke="#f8fafc" stroke-linecap="round" stroke-linejoin="round" stroke-width="34" d="M148 338L222 174L296 338"/><path fill="none" stroke="#2dd4bf" stroke-linecap="round" stroke-width="28" d="M181 278H263"/><path fill="none" stroke="#fb923c" stroke-linecap="round" stroke-linejoin="round" stroke-width="34" d="M346 176C318 154 274 150 238 171C194 197 180 255 207 299C235 344 296 356 340 326C365 309 380 283 382 255H313"/><circle cx="346" cy="176" r="12" fill="#2dd4bf"/><circle cx="382" cy="255" r="12" fill="#f8fafc"/></svg>